<svg xmlns="http://www.w3.org/2000/svg" viewBox="0 0 463 463" width="58" height="57"><linearGradient id="a"><stop offset="0%" stop-color="#005083"/><stop offset="100%" stop-color="#22b972"/></linearGradient><g fill="url(#a)"><path d="M455.5 430.094c-13.593 0-20.881 5.211-26.737 9.399-5.158 3.688-9.231 6.601-18.013 6.601-8.789 0-12.865-2.914-18.025-6.602-5.858-4.188-13.149-9.398-26.747-9.398-13.602 0-20.896 5.21-26.756 9.397-5.164 3.689-9.242 6.603-18.036 6.603s-12.873-2.914-18.036-6.603c-5.86-4.187-13.154-9.397-26.756-9.397s-20.896 5.21-26.756 9.397c-5.164 3.689-9.242 6.603-18.037 6.603-.216 0-.416-.01-.626-.013.01-.162.025-.322.025-.487v-77.599l160.978 46.989a55.577 55.577 0 0 0 15.497 2.219c24.525 0 46.433-16.466 53.279-40.048a9.15 9.15 0 0 0 .139-.548 7.501 7.501 0 0 0-5.187-8.97l-69.267-20.219c-21.333-6.194-33.736-28.617-27.648-49.985a7.5 7.5 0 0 0-5.111-9.255l-42.129-12.298c13.862-6.724 24.766-19.089 29.237-34.493 7.695-26.51-5.364-54.204-29.567-65.637 15.601-7.425 27.392-21.976 30.816-39.886 5.304-27.746-12.631-55.894-40.832-64.081L62.644 2.523C54.435.14 45.82 4.878 43.437 13.087l-22.305 76.83a15.402 15.402 0 0 0 1.304 11.792 15.401 15.401 0 0 0 9.26 7.415L70.8 120.476c-.685.341-1.368.688-2.043 1.059-12.997 7.146-22.434 18.923-26.57 33.163-7.71 26.562 5.413 54.314 29.707 65.706a56.825 56.825 0 0 0-3.135 1.585c-12.998 7.145-22.435 18.922-26.571 33.161v.001c-8.531 29.388 8.438 60.239 37.816 68.768L184 354.275v75.902c-11.823.659-18.51 5.425-23.953 9.315-5.162 3.688-9.239 6.602-18.03 6.602-8.802 0-12.883-2.914-18.051-6.604-5.863-4.186-13.16-9.396-26.767-9.396-13.614 0-20.915 5.209-26.781 9.395-5.172 3.69-9.258 6.605-18.069 6.605s-12.896-2.915-18.069-6.605c-5.866-4.186-13.167-9.395-26.781-9.395a7.5 7.5 0 0 0 0 15c8.811 0 12.896 2.915 18.069 6.605 5.866 4.186 13.167 9.395 26.781 9.395s20.915-5.209 26.781-9.395c5.172-3.69 9.258-6.605 18.069-6.605 8.802 0 12.884 2.914 18.051 6.604 5.863 4.186 13.16 9.396 26.767 9.396 13.6 0 20.892-5.211 26.75-9.398 5.162-3.688 9.239-6.602 18.03-6.602 8.798 0 12.877 2.914 18.043 6.603 5.861 4.187 13.156 9.397 26.761 9.397 13.602 0 20.896-5.21 26.756-9.397 5.164-3.689 9.242-6.603 18.036-6.603s12.873 2.914 18.036 6.603c5.86 4.187 13.154 9.397 26.756 9.397s20.896-5.21 26.756-9.397c5.164-3.689 9.242-6.603 18.036-6.603 8.788 0 12.864 2.913 18.024 6.602 5.858 4.188 13.149 9.398 26.748 9.398 13.593 0 20.882-5.212 26.738-9.399 5.157-3.688 9.231-6.601 18.013-6.601a7.5 7.5 0 0 0 0-15zM327.303 133.047c-3.662 19.157-20.397 33.062-39.792 33.062-3.794 0-7.601-.546-11.315-1.625l-208.538-60.54 22.584-77.789 206.781 60.033c20.845 6.052 34.146 26.635 30.28 46.859zM35.537 94.1l22.305-76.83a.502.502 0 0 1 .62-.341l17.374 5.044-22.584 77.79-17.374-5.044a.5.5 0 0 1-.341-.619zm21.054 64.781c3.019-10.39 9.906-18.985 19.393-24.201 6.064-3.334 12.722-5.031 19.449-5.031 3.791 0 7.605.539 11.345 1.628l192.001 55.746c21.445 6.226 33.828 28.738 27.603 50.183-4.995 17.207-20.979 29.224-38.872 29.224-3.794 0-7.601-.546-11.315-1.625l-192-55.743c-21.445-6.226-33.828-28.737-27.604-50.181zm.001 100.452c3.019-10.39 9.906-18.984 19.392-24.199 9.482-5.212 20.418-6.42 30.785-3.403l236.036 68.899c-3.876 26.923 12.642 53.41 39.442 61.191l61.444 17.936c-6.765 13.503-20.781 22.447-36.216 22.447-3.794 0-7.601-.547-11.305-1.622L84.195 309.516c-21.445-6.226-33.828-28.738-27.603-50.183zM199 431.762v-73.108l17 4.962v77.589a136.556 136.556 0 0 1-2.441-1.714c-3.802-2.716-8.22-5.854-14.559-7.729z"/><path d="M109.409 65.041l12.928 3.753a7.49 7.49 0 0 0 2.094.299 7.503 7.503 0 0 0 7.199-5.411 7.499 7.499 0 0 0-5.112-9.293l-12.928-3.753a7.5 7.5 0 1 0-4.181 14.405zM157.405 78.976l32.003 9.292a7.503 7.503 0 0 0 9.294-5.112 7.5 7.5 0 0 0-5.111-9.294l-32.003-9.292a7.501 7.501 0 0 0-4.183 14.406zM141.414 174.654l71.993 20.902a7.503 7.503 0 0 0 9.294-5.112 7.5 7.5 0 0 0-5.111-9.294l-71.993-20.902a7.5 7.5 0 0 0-4.183 14.406zM97.836 162.001l11.57 3.359a7.503 7.503 0 0 0 9.294-5.112 7.5 7.5 0 0 0-5.111-9.294l-11.57-3.359a7.5 7.5 0 0 0-4.183 14.406zM257.602 293.468l-111.994-32.691a7.5 7.5 0 1 0-4.203 14.399l111.994 32.691a7.497 7.497 0 0 0 2.105.302 7.5 7.5 0 0 0 2.098-14.701zM113.604 251.435l-11.575-3.379a7.5 7.5 0 1 0-4.203 14.399l11.575 3.379a7.497 7.497 0 0 0 2.105.302 7.504 7.504 0 0 0 7.196-5.4 7.5 7.5 0 0 0-5.098-9.301z"/></g></svg>