<svg xmlns="http://www.w3.org/2000/svg" viewBox="0 0 511.317 511.317" width="80" height="60"><linearGradient id="a"><stop offset="0%" stop-color="#005083"/><stop offset="100%" stop-color="#22b972"/></linearGradient><path d="M138.627 305.56c-9.53 0-13.923-4.072-18.171-8.005l-.792-.733a4.013 4.013 0 0 0-5.645.242 3.99 3.99 0 0 0 .238 5.641l.772.71c4.616 4.276 10.939 10.135 23.598 10.135 2.208 0 3.995-1.787 3.995-3.995s-1.787-3.995-3.995-3.995zM105.472 294.294c-.71-2.092-2.969-3.184-5.064-2.505-17.09 5.781-42.626 10.993-63.544 12.959a3.996 3.996 0 0 0 .75 7.958c21.471-2.021 47.737-7.389 65.354-13.35a3.993 3.993 0 0 0 2.504-5.062zM255.658 305.561c-9.526 0-13.915-4.065-18.163-8.005a3.991 3.991 0 0 0-5.645.219 3.999 3.999 0 0 0 .214 5.648c4.615 4.275 10.935 10.127 23.594 10.127 2.208 0 3.995-1.786 3.995-3.994s-1.787-3.995-3.995-3.995zM222.757 294.294c-.709-2.092-2.964-3.184-5.063-2.505-16.974 5.743-42.545 10.947-63.626 12.936a3.995 3.995 0 1 0 .749 7.957c21.639-2.052 47.936-7.404 65.436-13.326a3.992 3.992 0 0 0 2.504-5.062zM372.69 305.56c-8.692 0-13.069-3.339-17.141-7.053a3.982 3.982 0 0 0-5.642.258 3.988 3.988 0 0 0 .258 5.641c4.844 4.424 10.977 9.144 22.524 9.144 2.208 0 3.996-1.787 3.996-3.995s-1.787-3.995-3.995-3.995zM340.092 294.295c-.702-2.092-2.957-3.184-5.063-2.505-16.565 5.602-42.788 10.923-63.767 12.92a4.005 4.005 0 0 0-3.604 4.361 3.998 3.998 0 0 0 3.979 3.612c.125 0 .25-.007.374-.015 21.877-2.091 48.232-7.436 65.576-13.311a3.996 3.996 0 0 0 2.505-5.062zM475.053 300.639c-1.28-1.007-2.418-2.067-3.511-3.082-4.604-4.26-9.816-9.081-19.677-5.766-16.821 5.687-42.303 10.884-63.416 12.912a3.987 3.987 0 0 0-3.588 4.361 3.987 3.987 0 0 0 3.963 3.612c.133 0 .266-.008.392-.014 21.658-2.091 47.865-7.436 65.201-13.303 5.157-1.715 7.193-.124 11.695 4.058 1.234 1.147 2.528 2.333 3.964 3.479a3.994 3.994 0 0 0 5.617-.64 4 4 0 0 0-.64-5.617zM145.805 249.64c-8.839 0-12.857-3.725-16.743-7.33a3.981 3.981 0 0 0-5.645.214 3.995 3.995 0 0 0 .214 5.645c4.303 3.99 10.197 9.46 22.173 9.46 2.208 0 3.996-1.786 3.996-3.994s-1.787-3.995-3.995-3.995zM115.259 239.215c-.709-2.091-2.972-3.195-5.063-2.505-15.409 5.216-38.886 10.042-58.422 12.012a3.997 3.997 0 0 0-3.573 4.377 3.993 3.993 0 0 0 4.377 3.573c20.07-2.025 44.257-7.007 60.177-12.394a3.995 3.995 0 0 0 2.504-5.063zM255.658 249.639c-8.056 0-12.1-3.085-15.869-6.522a3.975 3.975 0 0 0-5.641.257 3.988 3.988 0 0 0 .257 5.641c4.565 4.167 10.346 8.614 21.253 8.614a3.993 3.993 0 0 0 3.995-3.995 3.993 3.993 0 0 0-3.995-3.995zM225.081 239.216c-.709-2.091-2.988-3.195-5.063-2.505-15.453 5.231-38.968 10.065-58.516 12.027a3.996 3.996 0 0 0 .394 7.97c.133 0 .266-.008.402-.02 20.09-2.016 44.315-7.002 60.278-12.409a3.996 3.996 0 0 0 2.505-5.063zM365.511 249.64c-7.864 0-11.937-3.019-15.121-5.848a4.022 4.022 0 0 0-5.648.343 4.006 4.006 0 0 0 .344 5.641c4.385 3.881 10.244 7.853 20.426 7.853 2.208 0 3.993-1.786 3.993-3.994s-1.786-3.995-3.994-3.995zM334.966 239.215c-.71-2.091-2.972-3.195-5.064-2.505-15.471 5.239-39.041 10.077-58.663 12.043a4 4 0 0 0-3.581 4.373 4.007 4.007 0 0 0 4.376 3.577c20.16-2.021 44.448-7.014 60.427-12.425a3.991 3.991 0 0 0 2.505-5.063zM460.165 243.733l-1.7-1.557c-4.369-4.046-9.3-8.641-18.71-5.466-15.525 5.259-39.15 10.1-58.78 12.051a3.99 3.99 0 0 0-3.573 4.369 3.986 3.986 0 0 0 4.368 3.582c20.176-2.001 44.503-6.999 60.544-12.433 4.884-1.639 6.71.047 10.72 3.757l1.826 1.673c1.639 1.452 4.166 1.308 5.641-.335a3.998 3.998 0 0 0-.336-5.641zM152.514 201.703c-7.521 0-11.188-2.801-14.878-6.187a3.978 3.978 0 0 0-5.641.242 3.987 3.987 0 0 0 .242 5.641c4.369 4.014 9.9 8.293 20.277 8.293 2.208 0 3.995-1.786 3.995-3.994s-1.787-3.995-3.995-3.995zM123.643 192.119a3.99 3.99 0 0 0-5.06-2.508c-14.43 4.86-36.147 9.362-54.037 11.199a3.995 3.995 0 1 0 .406 7.97c.137 0 .273-.008.413-.018 18.707-1.924 40.599-6.469 55.77-11.583a3.99 3.99 0 0 0 2.508-5.06zM255.721 201.704c-7.311 0-11.091-2.813-14.06-5.446a3.98 3.98 0 0 0-5.641.339 3.99 3.99 0 0 0 .339 5.637c4.155 3.689 9.71 7.458 19.361 7.458a3.99 3.99 0 0 0 3.995-3.993 3.991 3.991 0 0 0-3.994-3.995zM227.11 192.118a3.996 3.996 0 0 0-5.06-2.508c-14.328 4.826-36.092 9.32-54.162 11.184a3.997 3.997 0 1 0 .82 7.951c18.6-1.923 41.062-6.569 55.894-11.567a3.99 3.99 0 0 0 2.508-5.06zM358.927 201.703c-6.584 0-10.142-2.185-13.021-4.545-1.709-1.408-4.23-1.143-5.626.55a3.995 3.995 0 0 0 .555 5.622c3.605 2.965 8.918 6.362 18.093 6.362 2.208 0 3.994-1.786 3.994-3.994s-1.787-3.995-3.995-3.995zM330.628 192.118a4 4 0 0 0-5.064-2.508c-14.215 4.786-36.045 9.28-54.341 11.176a4.01 4.01 0 0 0-3.565 4.389 4.005 4.005 0 0 0 4.392 3.562c18.818-1.955 41.35-6.601 56.073-11.559a3.985 3.985 0 0 0 2.505-5.06zM447.418 195.664l-.983-.909c-3.963-3.659-8.885-8.215-17.819-5.145-14.232 4.79-35.96 9.273-54.061 11.153a4.01 4.01 0 0 0-3.566 4.389 4.004 4.004 0 0 0 4.391 3.561c18.624-1.939 41.047-6.574 55.793-11.54 4.244-1.435 5.836-.249 9.831 3.449l1.045.956a3.99 3.99 0 0 0 5.642-.269 3.992 3.992 0 0 0-.273-5.645zM157.789 161.756c-6.882 0-10.334-2.563-13.283-5.188a3.986 3.986 0 0 0-5.637.324 3.985 3.985 0 0 0 .323 5.637c4.003 3.57 9.34 7.217 18.597 7.217 2.208 0 3.995-1.788 3.995-3.996s-1.787-3.994-3.995-3.994zM130.638 152.815a4.003 4.003 0 0 0-5.06-2.516c-13.618 4.58-33.405 8.707-50.409 10.521a3.993 3.993 0 1 0 .843 7.943c17.535-1.868 37.988-6.14 52.11-10.888a3.999 3.999 0 0 0 2.516-5.06zM255.658 161.757c-6.237 0-9.636-2.118-12.378-4.408a3.996 3.996 0 0 0-5.625.507 3.995 3.995 0 0 0 .507 5.625c3.491 2.918 8.637 6.265 17.496 6.265 2.208 0 3.995-1.787 3.995-3.995s-1.787-3.994-3.995-3.994zM228.777 152.816a4.003 4.003 0 0 0-5.06-2.516c-13.334 4.482-33.701 8.711-50.679 10.521a3.993 3.993 0 0 0 .421 7.965c.14 0 .285-.008.43-.022 17.496-1.865 38.542-6.242 52.371-10.888a3.999 3.999 0 0 0 2.517-5.06zM353.527 161.757c-5.844 0-9.128-1.904-11.328-3.562a4.002 4.002 0 0 0-5.602.796 4.002 4.002 0 0 0 .795 5.594c4.697 3.522 9.816 5.161 16.135 5.161 2.208 0 3.995-1.787 3.995-3.995s-1.787-3.994-3.995-3.994zM326.968 152.816a3.998 3.998 0 0 0-5.062-2.516c-13.177 4.431-33.541 8.649-50.69 10.49a3.987 3.987 0 0 0-3.55 4.396 3.992 3.992 0 0 0 4.391 3.546c17.672-1.895 38.73-6.26 52.391-10.856a3.994 3.994 0 0 0 2.52-5.06zM436.628 155.216c-3.784-3.496-8.497-7.842-17.087-4.916-13.162 4.427-33.393 8.637-50.331 10.474a3.993 3.993 0 0 0-3.542 4.4 3.99 3.99 0 0 0 4.4 3.543c17.727-1.923 38.152-6.179 52.039-10.849 3.901-1.342 5.305-.293 9.113 3.234 1.616 1.498 4.135 1.381 5.641-.23 1.491-1.623 1.381-4.158-.233-5.656zM129.825 369.477c-10.353 0-15.12-4.416-19.731-8.685-4.884-4.524-10.427-9.674-20.87-6.116-23.738 8.021-62.768 14.801-85.23 14.801-2.208 0-3.994 1.786-3.994 3.994s1.786 3.995 3.994 3.995c23.574 0 62.955-6.827 87.789-15.222 5.957-1.99 8.266.139 12.885 4.407 4.928 4.564 11.672 10.814 25.158 10.814a3.991 3.991 0 0 0 3.994-3.994 3.992 3.992 0 0 0-3.995-3.994z" fill="url(#a)"/><path d="M255.658 369.477c-10.353 0-15.12-4.416-19.731-8.685-4.88-4.524-10.424-9.674-20.871-6.116-23.738 8.021-62.768 14.801-85.23 14.801-2.208 0-3.995 1.786-3.995 3.994s1.787 3.995 3.995 3.995c23.574 0 62.955-6.827 87.789-15.222 5.949-1.99 8.266.139 12.885 4.407 4.928 4.564 11.672 10.814 25.158 10.814a3.992 3.992 0 0 0 3.995-3.994 3.992 3.992 0 0 0-3.995-3.994z" fill="url(#a)"/><path d="M381.489 369.477c-10.361 0-15.12-4.416-19.731-8.685-4.884-4.524-10.424-9.674-20.87-6.116-23.734 8.021-62.767 14.801-85.23 14.801-2.208 0-3.995 1.786-3.995 3.994s1.787 3.995 3.995 3.995c23.578 0 62.955-6.827 87.789-15.222 5.93-1.99 8.271.139 12.881 4.407 4.924 4.564 11.68 10.814 25.162 10.814a3.99 3.99 0 0 0 3.993-3.994 3.991 3.991 0 0 0-3.994-3.994z" fill="url(#a)"/><path d="M507.321 369.477c-10.361 0-15.12-4.416-19.731-8.685-4.891-4.524-10.416-9.674-20.87-6.116-23.734 8.021-62.768 14.801-85.23 14.801-2.208 0-3.994 1.786-3.994 3.994s1.786 3.995 3.994 3.995c23.578 0 62.955-6.827 87.789-15.222 5.938-1.99 8.263.139 12.881 4.407 4.924 4.564 11.68 10.814 25.162 10.814a3.99 3.99 0 0 0 3.993-3.994 3.991 3.991 0 0 0-3.994-3.994zM129.825 385.455c-10.353 0-15.12-4.416-19.731-8.684-4.884-4.525-10.427-9.675-20.87-6.117-23.738 8.021-62.768 14.801-85.23 14.801A3.991 3.991 0 0 0 0 389.45a3.992 3.992 0 0 0 3.994 3.994c23.574 0 62.955-6.827 87.789-15.222 5.957-1.989 8.266.139 12.885 4.408 4.928 4.563 11.672 10.813 25.158 10.813a3.991 3.991 0 0 0 3.994-3.993 3.992 3.992 0 0 0-3.995-3.995z" fill="url(#a)"/><path d="M255.658 385.455c-10.353 0-15.12-4.416-19.731-8.684-4.88-4.525-10.424-9.675-20.871-6.117-23.738 8.021-62.768 14.801-85.23 14.801a3.992 3.992 0 0 0-3.995 3.995 3.993 3.993 0 0 0 3.995 3.994c23.574 0 62.955-6.827 87.789-15.222 5.949-1.989 8.266.139 12.885 4.408 4.928 4.563 11.672 10.813 25.158 10.813a3.992 3.992 0 0 0 3.995-3.993 3.992 3.992 0 0 0-3.995-3.995z" fill="url(#a)"/><path d="M381.489 385.455c-10.361 0-15.12-4.416-19.731-8.684-4.884-4.525-10.424-9.675-20.87-6.117-23.734 8.021-62.767 14.801-85.23 14.801a3.992 3.992 0 0 0-3.995 3.995 3.993 3.993 0 0 0 3.995 3.994c23.578 0 62.955-6.827 87.789-15.222 5.93-1.989 8.271.139 12.881 4.408 4.924 4.563 11.68 10.813 25.162 10.813a3.99 3.99 0 0 0 3.993-3.993 3.991 3.991 0 0 0-3.994-3.995z" fill="url(#a)"/><path d="M507.321 385.455c-10.361 0-15.12-4.416-19.731-8.684-4.891-4.525-10.416-9.675-20.87-6.117-23.734 8.021-62.768 14.801-85.23 14.801a3.991 3.991 0 0 0-3.994 3.995 3.992 3.992 0 0 0 3.994 3.994c23.578 0 62.955-6.827 87.789-15.222 5.938-1.989 8.263.139 12.881 4.408 4.924 4.563 11.68 10.813 25.162 10.813a3.99 3.99 0 0 0 3.993-3.993 3.991 3.991 0 0 0-3.994-3.995zM161.783 129.799c-7.323 0-10.576-3.015-14.021-6.21-3.662-3.394-8.231-7.608-16.587-4.779-17.726 5.956-46.7 10.989-63.267 10.989a3.993 3.993 0 0 0-3.995 3.995 3.993 3.993 0 0 0 3.995 3.995c17.574 0 47.097-5.115 65.822-11.407 3.683-1.256 5.001-.266 8.602 3.066 3.796 3.518 8.996 8.34 19.451 8.34a3.992 3.992 0 0 0 3.995-3.994 3.993 3.993 0 0 0-3.995-3.995z" fill="url(#a)"/><path d="M255.659 129.799c-7.323 0-10.576-3.015-14.021-6.21-3.663-3.394-8.231-7.608-16.587-4.779-17.726 5.956-46.699 10.989-63.267 10.989a3.993 3.993 0 0 0-3.995 3.995 3.993 3.993 0 0 0 3.995 3.995c17.574 0 47.097-5.115 65.822-11.407 3.686-1.256 5.005-.266 8.602 3.066 3.795 3.518 8.995 8.34 19.45 8.34a3.993 3.993 0 0 0 3.996-3.994 3.993 3.993 0 0 0-3.995-3.995z" fill="url(#a)"/><path d="M349.533 129.799c-7.334 0-10.596-3.019-14.044-6.218-3.667-3.39-8.223-7.615-16.563-4.771-17.727 5.956-46.696 10.989-63.268 10.989a3.993 3.993 0 0 0-3.995 3.995 3.993 3.993 0 0 0 3.995 3.995c17.57 0 47.094-5.115 65.834-11.411 3.659-1.248 4.977-.258 8.566 3.066 3.808 3.522 9.02 8.344 19.475 8.344a3.991 3.991 0 0 0 3.994-3.994 3.992 3.992 0 0 0-3.994-3.995z" fill="url(#a)"/><path d="M443.408 129.799c-7.334 0-10.596-3.019-14.045-6.218-3.666-3.39-8.207-7.615-16.563-4.771-17.726 5.956-46.696 10.989-63.267 10.989a3.993 3.993 0 0 0-3.995 3.995 3.993 3.993 0 0 0 3.995 3.995c17.57 0 47.094-5.115 65.834-11.411 3.667-1.248 4.977-.258 8.566 3.066 3.808 3.522 9.02 8.344 19.475 8.344a3.992 3.992 0 0 0 3.994-3.994 3.993 3.993 0 0 0-3.994-3.995zM68.939 129.935c-2.111-.557-4.319.699-4.888 2.829L.136 372.44a3.997 3.997 0 0 0 2.828 4.892 3.992 3.992 0 0 0 4.888-2.832l63.915-239.677a3.99 3.99 0 0 0-2.828-4.888z" fill="url(#a)"/><path d="M511.177 372.441l-63.915-239.676c-.562-2.135-2.746-3.391-4.884-2.829a3.982 3.982 0 0 0-2.824 4.888L503.468 374.5a3.985 3.985 0 0 0 3.854 2.965c.344 0 .687-.047 1.031-.132a3.99 3.99 0 0 0 2.824-4.892zM471.892 357.57l-53.928-235.861c-.491-2.157-2.644-3.504-4.782-3.004a3.993 3.993 0 0 0-3.004 4.783l53.928 235.86a3.996 3.996 0 0 0 4.782 3.004 3.988 3.988 0 0 0 3.004-4.782zM324.176 122.227c-.203-2.2-2.192-3.838-4.354-3.608a4.002 4.002 0 0 0-3.604 4.35l21.971 235.856a3.999 3.999 0 0 0 3.979 3.628c.125 0 .25-.008.375-.016a3.996 3.996 0 0 0 3.604-4.346l-21.971-235.864zM226.49 118.607c-2.048-.156-4.061 1.619-4.158 3.823l-9.987 235.857a3.998 3.998 0 0 0 3.823 4.166h.172a3.991 3.991 0 0 0 3.986-3.823l9.987-235.865a3.993 3.993 0 0 0-3.823-4.158zM133.146 118.667c-2.188-.403-4.244 1.06-4.63 3.233L86.572 357.757a3.991 3.991 0 0 0 3.936 4.696 3.992 3.992 0 0 0 3.928-3.292l41.944-235.864a3.99 3.99 0 0 0-3.234-4.63zM162.311 129.835c-2.2-.265-4.194 1.248-4.486 3.433L125.867 372.94a4 4 0 0 0 3.433 4.494c.179.023.355.031.53.031a3.998 3.998 0 0 0 3.957-3.464l31.957-239.68a3.994 3.994 0 0 0-3.433-4.486zM255.658 129.799a3.993 3.993 0 0 0-3.995 3.995V373.47a3.993 3.993 0 0 0 3.995 3.995 3.993 3.993 0 0 0 3.995-3.995V133.794a3.993 3.993 0 0 0-3.995-3.995zM385.454 372.939l-31.958-239.672c-.296-2.184-2.277-3.698-4.494-3.433a4 4 0 0 0-3.433 4.486L377.527 374a4 4 0 0 0 3.963 3.465c.172 0 .344-.008.53-.032a4.007 4.007 0 0 0 3.434-4.494z" fill="url(#a)"/><path d="M507.322 369.476a3.991 3.991 0 0 0-3.994 3.994v15.979c0 2.207 1.786 3.994 3.994 3.994s3.994-1.787 3.994-3.994V373.47a3.991 3.991 0 0 0-3.994-3.994zM3.994 369.476A3.991 3.991 0 0 0 0 373.47v15.979c0 2.207 1.786 3.994 3.994 3.994s3.995-1.787 3.995-3.994V373.47a3.992 3.992 0 0 0-3.995-3.994z" fill="url(#a)"/></svg>