<svg xmlns="http://www.w3.org/2000/svg" viewBox="0 0 511.999 511.999" width="62" height="56"><linearGradient id="a"><stop offset="0%" stop-color="#005083"/><stop offset="100%" stop-color="#22b972"/></linearGradient><path d="M246.858 33.002c-.794-4.319-4.937-7.172-9.256-6.383-29.545 5.43-46.818 23.145-60.697 37.38-14.443 14.814-23.983 24.6-44.933 24.6-20.949 0-30.49-9.785-44.934-24.6C70.992 47.541 49.014 24.998 7.95 24.998A7.95 7.95 0 0 0 0 32.948v102.207a7.95 7.95 0 0 0 15.9 0V41.239C45.134 43.8 61.278 60.355 75.656 75.103c13.158 13.495 24.79 25.408 45.189 28.571v226.529a7.95 7.95 0 0 0 15.9 0V104.356c24.463-1.483 37.078-14.417 51.546-29.256 12.945-13.278 27.618-28.327 52.185-32.841a7.95 7.95 0 0 0 6.382-9.257z" fill="url(#a)"/><path d="M504.05 24.998c-41.063 0-63.042 22.542-79.092 39.003C410.515 78.814 400.972 88.6 380.023 88.6c-20.951 0-30.492-9.786-44.937-24.601-13.877-14.232-31.148-31.945-60.686-37.377a7.95 7.95 0 1 0-2.876 15.638c24.562 4.516 39.233 19.563 52.178 32.839 14.471 14.841 27.088 27.774 51.554 29.256v98.642a7.95 7.95 0 0 0 15.9 0v-99.325c20.397-3.164 32.029-15.077 45.189-28.574 14.377-14.745 30.521-31.3 59.756-33.861v334.759c-36.009 2.685-56.161 23.34-71.139 38.702l-.002.002c-11.61 11.906-20.057 20.561-33.803 23.5V245.4a7.95 7.95 0 0 0-15.9 0v193.712c-17.719-1.401-26.87-10.772-40.169-24.412-16.049-16.459-38.028-39.001-79.091-39.001s-63.041 22.543-79.089 39.002c-13.296 13.638-22.446 23.009-40.161 24.411v-66.507a7.95 7.95 0 0 0-15.9 0v65.596c-13.747-2.938-22.194-11.593-33.806-23.502-14.979-15.362-35.13-36.018-71.139-38.702v-189.96c0-4.391-3.56-7.95-7.95-7.95S0 181.647 0 186.037v229.411a7.95 7.95 0 0 0 7.95 7.95c20.949 0 30.49 9.785 44.934 24.6C68.932 464.457 90.91 487 131.973 487c41.063 0 63.041-22.543 79.089-39.002 14.443-14.814 23.983-24.6 44.933-24.6s30.492 9.786 44.937 24.601C316.98 464.458 338.959 487 380.022 487c41.064 0 63.043-22.542 79.091-39.001 14.444-14.814 23.986-24.601 44.936-24.601a7.95 7.95 0 0 0 7.95-7.95v-382.5a7.95 7.95 0 0 0-7.949-7.95zm-7.951 382.905c-22.408 2.367-34.54 14.812-48.371 28.997-15.631 16.031-33.347 34.201-67.706 34.201s-52.075-18.17-67.708-34.203c-15.381-15.776-28.666-29.399-56.32-29.399-27.653 0-40.938 13.625-56.318 29.4-15.63 16.032-33.346 34.202-67.704 34.202-34.359 0-52.075-18.17-67.706-34.204-13.828-14.182-25.964-26.626-48.367-28.993v-15.965c29.234 2.561 45.377 19.116 59.756 33.864 15.381 15.774 28.665 29.398 56.317 29.398 27.653 0 40.938-13.625 56.318-29.4 15.63-16.032 33.346-34.202 67.704-34.202 34.359 0 52.076 18.17 67.706 34.201 15.382 15.777 28.667 29.401 56.321 29.401s40.939-13.625 56.32-29.399l.002-.001c14.377-14.745 30.521-31.3 59.756-33.861v15.963z" fill="url(#a)"/></svg>