<svg xmlns="http://www.w3.org/2000/svg" viewBox="0 0 197.333 197.333" width="65" height="57"><linearGradient id="a"><stop offset="0%" stop-color="#005083"/><stop offset="100%" stop-color="#22b972"/></linearGradient><path d="M78.403 183.74a2 2 0 0 1 0-4c28.263 0 47.958-7.433 47.958-14.104a2 2 0 0 1 4 0c.001 11.759-26.77 18.104-51.958 18.104zm108.195-10.906c-.178 0-.359-.024-.539-.074-7.167-2-14.801-3.242-21.538-4.338-13.504-2.197-23.261-3.784-24.485-10.042-.721-3.687 1.906-7.193 4.446-10.585 2.151-2.871 4.375-5.841 3.801-8.001-.387-1.456-2.096-2.848-5.078-4.137-13.74-5.941-45.562-4.414-52.701-3.983l.989 12.782a2 2 0 1 1-3.988.308l-4.601-59.47h-24.16l-4.583 59.469a1.99 1.99 0 0 1-2.148 1.841 2 2 0 0 1-1.84-2.147l.825-10.702c-2.756-.215-8.914-1.042-11.115-4.185-.922-1.317-1.069-2.562-1.177-3.47-.13-1.097-.224-1.889-5.961-2.63-10.027-1.294-30.411 0-30.615.013a1.996 1.996 0 0 1-2.125-1.867 2 2 0 0 1 1.867-2.125c.852-.055 20.98-1.331 31.385.013 7.51.97 9.022 2.747 9.422 6.126.087.736.153 1.177.481 1.646.971 1.386 5.12 2.248 8.146 2.49l3.428-44.471h-5.399a2 2 0 0 1 0-4h3.333V50.543c0-18.042 14.677-32.72 32.718-32.72h27.948v-2.229a2 2 0 0 1 4 0v2.229H164v-2.229a2 2 0 0 1 4 0v2.229h27.333a2 2 0 0 1 0 4H168v26.72h27.333a2 2 0 0 1 0 4H168v1.097a2 2 0 0 1-4 0v-1.097h-46.667v1.097a2 2 0 0 1-4 0v-1.097h-11.537c-7.25 0-13.149 5.898-13.149 13.148v15.604h2.02a2 2 0 0 1 0 4h-3.75l3.279 42.387c7.307-.461 39.827-2.083 54.598 4.304 4.222 1.825 6.628 4.044 7.356 6.781 1.073 4.034-1.743 7.792-4.465 11.427-2.017 2.692-4.102 5.476-3.722 7.419.689 3.524 11.117 5.221 21.202 6.861 6.839 1.112 14.59 2.373 21.971 4.433a2 2 0 0 1-.538 3.927zM56.667 81.295h27.98V65.691c0-9.456 7.693-17.148 17.149-17.148h11.537v-26.72H85.385c-15.835 0-28.718 12.884-28.718 28.72v30.752zm60.666-32.752H164v-26.72h-46.667v26.72zm-46.166 124.05c-23.653 0-48.792-5.987-48.792-17.083a2 2 0 0 1 4 0c0 6.188 18.396 13.083 44.792 13.083a2 2 0 0 1 0 4zm0-9.583c-17.952 0-36.125-4.466-36.125-13a2 2 0 0 1 4 0c0 3.67 12.515 9 32.125 9s32.125-5.33 32.125-9a2 2 0 0 1 4 0c0 8.535-18.174 13-36.125 13zm5.061-25.587a2 2 0 0 1-1.998-1.938l-.729-23.188a2 2 0 0 1 1.936-2.062c1.115-.065 2.027.832 2.062 1.937l.729 23.188a2 2 0 0 1-2 2.063zm-12.83-17.938a2 2 0 0 1-1.999-2.121l1.604-26.542a2 2 0 0 1 3.993.242l-1.604 26.542a2 2 0 0 1-1.994 1.879zm-19.4-5.25a2 2 0 0 1-1.765-2.938l2.479-4.667a2 2 0 1 1 3.533 1.877l-2.479 4.667a2 2 0 0 1-1.768 1.061zm53.378-6.562a1.995 1.995 0 0 1-1.611-.813l-2.042-2.771a2 2 0 0 1 3.219-2.373l2.042 2.771a2 2 0 0 1-1.608 3.186zm-63.291-7.146a2 2 0 0 1-.976-3.747l9.917-5.527a2 2 0 0 1 1.948 3.494l-9.917 5.527a1.99 1.99 0 0 1-.972.253zm59.934-6.402c-.398 0-.8-.118-1.15-.365l-2.917-2.057a2 2 0 0 1 2.306-3.269l2.917 2.057a2 2 0 0 1-1.156 3.634zm15.899-.154c-.159 0-.319-.019-.48-.059l-8.896-2.194a2 2 0 1 1 .958-3.883l8.896 2.194a2 2 0 0 1-.478 3.942zM39.04 87.84a2 2 0 0 1-.402-3.959l4.958-1.021a1.995 1.995 0 0 1 2.363 1.556 2 2 0 0 1-1.555 2.362l-4.958 1.021a2.02 2.02 0 0 1-.406.041z" fill="url(#a)"/></svg>