<svg xmlns="http://www.w3.org/2000/svg" viewBox="0 0 512 512" width="52" height="57"><linearGradient id="a"><stop offset="0%" stop-color="#005083"/><stop offset="100%" stop-color="#22b972"/></linearGradient><path d="M307.732 118.294c-13.817-13.817-32.189-21.426-51.729-21.426-19.541 0-37.912 7.609-51.729 21.427-28.523 28.522-28.523 74.933 0 103.458 5.501 5.504 11.728 10.027 18.569 13.499v124.291c0 2.652 1.054 5.195 2.929 7.071l14.758 14.759a10 10 0 0 0 5.684 2.833l14.731 2.064a10.002 10.002 0 0 0 7.264-1.812l27.35-19.863a10.003 10.003 0 0 0 4.124-8.091v-9.954a9.997 9.997 0 0 0-4.001-8l-7.457-5.591 8.458-8.293a9.998 9.998 0 0 0 3-7.141v-11.842c0-2.627-1.034-5.149-2.878-7.02l-10.191-10.339-.002-3.483 7.652-3.942a10.002 10.002 0 0 0 5.42-8.89v-21.055c0-3.589-1.924-6.903-5.04-8.684l-8.076-4.612-.001-1.147c7.853-3.597 14.948-8.542 21.165-14.758 28.523-28.525 28.523-74.936 0-103.459zm-34.42 101.997a10.007 10.007 0 0 0-6.757 9.476l.018 13.711a10.002 10.002 0 0 0 5.04 8.671l8.068 4.607v9.153l-7.657 3.945a9.999 9.999 0 0 0-5.42 8.897l.011 13.682a10 10 0 0 0 2.878 7.012l10.188 10.336v3.541l-10.109 9.911a10.001 10.001 0 0 0-2.999 7.141v6.345a9.997 9.997 0 0 0 4.001 8l9.011 6.757-19.862 14.426-7.418-1.04-9.461-9.462V228.792c0-4.11-2.515-7.801-6.339-9.306-6.798-2.674-12.885-6.67-18.091-11.877-20.726-20.724-20.726-54.447-.002-75.172 10.04-10.04 23.389-15.569 37.587-15.569 14.199 0 27.547 5.529 37.587 15.568 20.725 20.725 20.725 54.448 0 75.173-5.782 5.782-12.603 10.049-20.274 12.682z" fill="url(#a)"/><circle cx="256.001" cy="150.851" r="15" fill="url(#a)"/><path d="M478.51 88.624C403.693 69.225 328.436 39.019 260.877 1.27a10.003 10.003 0 0 0-9.755-.001C181.619 40.1 110.43 68.675 33.489 88.624a10 10 0 0 0-7.49 9.68v110.394c0 113.535 55.292 188.637 101.678 231.647C177.434 486.483 235.136 512 256 512c20.864 0 78.566-25.517 128.325-71.655 46.384-43.011 101.677-118.114 101.677-231.647V98.304a10.001 10.001 0 0 0-7.492-9.68zm-12.509 120.073c0 106.319-51.811 176.68-95.276 216.982-27.557 25.553-54.336 41.685-71.949 50.718C276.457 487.844 260.966 492 256 492s-20.457-4.155-42.776-15.603c-17.612-9.033-44.392-25.165-71.949-50.718-43.465-40.303-95.276-110.663-95.276-216.982V106.01c73.962-19.8 142.799-47.523 210.002-84.574 65.496 36.059 137.827 65.184 210 84.57v102.691z" fill="url(#a)"/><path d="M443.79 115.373C380.455 96.96 318.854 71.95 260.703 41.037a10.004 10.004 0 0 0-9.398.005C193.072 72.08 131.471 97.095 68.22 115.39a10 10 0 0 0-7.222 9.606v83.701c0 39.077 7.405 76.161 22.008 110.222 14.53 33.89 36.201 64.82 64.409 91.932 20.171 19.387 43.466 36.474 67.365 49.413 4.281 2.318 26.303 14.003 39.402 16.421a9.972 9.972 0 0 0 3.63 0c13.1-2.418 35.121-14.103 39.402-16.421 23.897-12.938 47.192-30.024 67.366-49.413 28.208-27.111 49.878-58.041 64.409-91.932 14.603-34.06 22.008-71.144 22.008-110.222v-83.723a9.995 9.995 0 0 0-7.207-9.601zM431 208.697c0 73.375-27.008 136.538-80.275 187.733-18.895 18.161-40.69 34.152-63.029 46.245-10.166 5.504-23.89 11.919-31.696 13.934-7.806-2.015-21.53-8.431-31.696-13.934-22.34-12.094-44.135-28.085-63.028-46.245C108.009 345.235 81 282.072 81 208.697v-76.214c60.356-17.971 119.174-41.934 175.019-71.305 55.758 29.25 114.57 53.204 174.983 71.272v76.247z" fill="url(#a)"/><path d="M226.965 403.697c-12.049-7.604-23.647-16.367-34.472-26.044-4.117-3.68-10.438-3.326-14.12.79-3.681 4.116-3.327 10.438.79 14.119 11.65 10.415 24.142 19.852 37.128 28.047a9.994 9.994 0 0 0 13.794-3.119c2.948-4.67 1.551-10.846-3.12-13.793zM173.027 358.305l-.2-.215c-3.701-4.054-9.987-4.368-14.073-.689-4.105 3.695-4.438 10.018-.744 14.123l.2.215a9.975 9.975 0 0 0 7.387 3.256 9.963 9.963 0 0 0 6.686-2.567c4.105-3.695 4.438-10.018.744-14.123z" fill="url(#a)"/></svg>